<mxfile host="app.diagrams.net" modified="2024-05-01T13:54:00.686Z" agent="Mozilla/5.0 (X11; Ubuntu; Linux x86_64; rv:124.0) Gecko/20100101 Firefox/124.0" etag="8_tvZvXkrZxw4NW-4MFr" version="24.2.5" type="github">
  <diagram name="Page-1" id="74e2e168-ea6b-b213-b513-2b3c1d86103e">
    <mxGraphModel dx="2731" dy="2384" grid="1" gridSize="10" guides="1" tooltips="1" connect="1" arrows="1" fold="1" page="1" pageScale="1" pageWidth="1100" pageHeight="850" background="none" math="0" shadow="0">
      <root>
        <mxCell id="0" />
        <mxCell id="1" parent="0" />
        <mxCell id="77e6c97f196da883-1" value="Pool" style="swimlane;html=1;childLayout=stackLayout;startSize=20;rounded=0;shadow=0;labelBackgroundColor=none;strokeWidth=1;fontFamily=Verdana;fontSize=8;align=center;" parent="1" vertex="1">
          <mxGeometry x="290" y="-270" width="510" height="1540" as="geometry" />
        </mxCell>
        <mxCell id="77e6c97f196da883-2" value="用户" style="swimlane;html=1;startSize=20;" parent="77e6c97f196da883-1" vertex="1">
          <mxGeometry y="20" width="160" height="1520" as="geometry" />
        </mxCell>
        <mxCell id="ihScRz3SfvM41WwnzZbL-27" value="" style="edgeStyle=orthogonalEdgeStyle;rounded=0;orthogonalLoop=1;jettySize=auto;html=1;" edge="1" parent="77e6c97f196da883-2" source="ihScRz3SfvM41WwnzZbL-24" target="ihScRz3SfvM41WwnzZbL-26">
          <mxGeometry relative="1" as="geometry" />
        </mxCell>
        <mxCell id="ihScRz3SfvM41WwnzZbL-24" value="展示商品，展示店铺" style="rounded=1;whiteSpace=wrap;html=1;" vertex="1" parent="77e6c97f196da883-2">
          <mxGeometry x="20" y="480" width="120" height="60" as="geometry" />
        </mxCell>
        <mxCell id="ihScRz3SfvM41WwnzZbL-31" value="" style="edgeStyle=orthogonalEdgeStyle;rounded=0;orthogonalLoop=1;jettySize=auto;html=1;" edge="1" parent="77e6c97f196da883-2" source="ihScRz3SfvM41WwnzZbL-26" target="ihScRz3SfvM41WwnzZbL-30">
          <mxGeometry relative="1" as="geometry" />
        </mxCell>
        <mxCell id="ihScRz3SfvM41WwnzZbL-26" value="用户下单" style="whiteSpace=wrap;html=1;rounded=1;" vertex="1" parent="77e6c97f196da883-2">
          <mxGeometry x="20" y="590" width="120" height="60" as="geometry" />
        </mxCell>
        <mxCell id="ihScRz3SfvM41WwnzZbL-33" value="" style="edgeStyle=orthogonalEdgeStyle;rounded=0;orthogonalLoop=1;jettySize=auto;html=1;" edge="1" parent="77e6c97f196da883-2" source="ihScRz3SfvM41WwnzZbL-30" target="ihScRz3SfvM41WwnzZbL-32">
          <mxGeometry relative="1" as="geometry" />
        </mxCell>
        <mxCell id="ihScRz3SfvM41WwnzZbL-39" value="" style="edgeStyle=orthogonalEdgeStyle;rounded=0;orthogonalLoop=1;jettySize=auto;html=1;" edge="1" parent="77e6c97f196da883-2" source="ihScRz3SfvM41WwnzZbL-30" target="ihScRz3SfvM41WwnzZbL-32">
          <mxGeometry relative="1" as="geometry" />
        </mxCell>
        <mxCell id="ihScRz3SfvM41WwnzZbL-30" value="是否使用优惠券" style="rhombus;whiteSpace=wrap;html=1;rounded=1;" vertex="1" parent="77e6c97f196da883-2">
          <mxGeometry x="20" y="700" width="120" height="60" as="geometry" />
        </mxCell>
        <mxCell id="ihScRz3SfvM41WwnzZbL-32" value="No" style="ellipse;whiteSpace=wrap;html=1;rounded=1;" vertex="1" parent="77e6c97f196da883-2">
          <mxGeometry x="25" y="800" width="110" height="60" as="geometry" />
        </mxCell>
        <mxCell id="ihScRz3SfvM41WwnzZbL-61" value="" style="edgeStyle=orthogonalEdgeStyle;rounded=0;orthogonalLoop=1;jettySize=auto;html=1;" edge="1" parent="77e6c97f196da883-2" source="ihScRz3SfvM41WwnzZbL-58" target="ihScRz3SfvM41WwnzZbL-60">
          <mxGeometry relative="1" as="geometry" />
        </mxCell>
        <mxCell id="ihScRz3SfvM41WwnzZbL-58" value="确认收货" style="whiteSpace=wrap;html=1;rounded=1;" vertex="1" parent="77e6c97f196da883-2">
          <mxGeometry x="20" y="1070" width="120" height="60" as="geometry" />
        </mxCell>
        <mxCell id="ihScRz3SfvM41WwnzZbL-60" value="进行评价" style="whiteSpace=wrap;html=1;rounded=1;" vertex="1" parent="77e6c97f196da883-2">
          <mxGeometry x="20" y="1210" width="120" height="60" as="geometry" />
        </mxCell>
        <mxCell id="77e6c97f196da883-3" value="平台" style="swimlane;html=1;startSize=20;" parent="77e6c97f196da883-1" vertex="1">
          <mxGeometry x="160" y="20" width="180" height="1520" as="geometry" />
        </mxCell>
        <mxCell id="ihScRz3SfvM41WwnzZbL-12" value="" style="edgeStyle=orthogonalEdgeStyle;rounded=0;orthogonalLoop=1;jettySize=auto;html=1;" edge="1" parent="77e6c97f196da883-3" source="ihScRz3SfvM41WwnzZbL-9" target="ihScRz3SfvM41WwnzZbL-11">
          <mxGeometry relative="1" as="geometry" />
        </mxCell>
        <mxCell id="ihScRz3SfvM41WwnzZbL-9" value="审核商家" style="rounded=1;whiteSpace=wrap;html=1;" vertex="1" parent="77e6c97f196da883-3">
          <mxGeometry x="20" y="50" width="120" height="60" as="geometry" />
        </mxCell>
        <mxCell id="ihScRz3SfvM41WwnzZbL-14" value="" style="edgeStyle=orthogonalEdgeStyle;rounded=0;orthogonalLoop=1;jettySize=auto;html=1;" edge="1" parent="77e6c97f196da883-3" source="ihScRz3SfvM41WwnzZbL-11" target="ihScRz3SfvM41WwnzZbL-13">
          <mxGeometry relative="1" as="geometry" />
        </mxCell>
        <mxCell id="ihScRz3SfvM41WwnzZbL-11" value="是否通过" style="rhombus;whiteSpace=wrap;html=1;rounded=1;" vertex="1" parent="77e6c97f196da883-3">
          <mxGeometry x="30" y="160" width="100" height="60" as="geometry" />
        </mxCell>
        <mxCell id="ihScRz3SfvM41WwnzZbL-15" style="edgeStyle=orthogonalEdgeStyle;rounded=0;orthogonalLoop=1;jettySize=auto;html=1;exitX=0;exitY=0.5;exitDx=0;exitDy=0;entryX=0;entryY=0.5;entryDx=0;entryDy=0;" edge="1" parent="77e6c97f196da883-3" source="ihScRz3SfvM41WwnzZbL-13" target="ihScRz3SfvM41WwnzZbL-9">
          <mxGeometry relative="1" as="geometry">
            <Array as="points">
              <mxPoint x="10" y="290" />
              <mxPoint x="10" y="80" />
            </Array>
          </mxGeometry>
        </mxCell>
        <mxCell id="ihScRz3SfvM41WwnzZbL-13" value="No" style="ellipse;whiteSpace=wrap;html=1;rounded=1;" vertex="1" parent="77e6c97f196da883-3">
          <mxGeometry x="30" y="260" width="100" height="50" as="geometry" />
        </mxCell>
        <mxCell id="ihScRz3SfvM41WwnzZbL-22" value="&lt;div&gt;展示店铺信息，&lt;/div&gt;&lt;div&gt;商品信息&lt;/div&gt;" style="whiteSpace=wrap;html=1;rounded=1;" vertex="1" parent="77e6c97f196da883-3">
          <mxGeometry x="20" y="370" width="120" height="60" as="geometry" />
        </mxCell>
        <mxCell id="ihScRz3SfvM41WwnzZbL-47" value="展示订单信息" style="rounded=1;whiteSpace=wrap;html=1;" vertex="1" parent="77e6c97f196da883-3">
          <mxGeometry x="30" y="1010" width="120" height="60" as="geometry" />
        </mxCell>
        <mxCell id="ihScRz3SfvM41WwnzZbL-67" value="" style="edgeStyle=orthogonalEdgeStyle;rounded=0;orthogonalLoop=1;jettySize=auto;html=1;" edge="1" parent="77e6c97f196da883-3" source="ihScRz3SfvM41WwnzZbL-62" target="ihScRz3SfvM41WwnzZbL-66">
          <mxGeometry relative="1" as="geometry" />
        </mxCell>
        <mxCell id="ihScRz3SfvM41WwnzZbL-62" value="评价回复" style="whiteSpace=wrap;html=1;rounded=1;" vertex="1" parent="77e6c97f196da883-3">
          <mxGeometry x="30" y="1210" width="120" height="60" as="geometry" />
        </mxCell>
        <mxCell id="ihScRz3SfvM41WwnzZbL-69" value="" style="edgeStyle=orthogonalEdgeStyle;rounded=0;orthogonalLoop=1;jettySize=auto;html=1;" edge="1" parent="77e6c97f196da883-3" source="ihScRz3SfvM41WwnzZbL-66" target="ihScRz3SfvM41WwnzZbL-68">
          <mxGeometry relative="1" as="geometry" />
        </mxCell>
        <mxCell id="ihScRz3SfvM41WwnzZbL-66" value="更新商店商品评分评价" style="whiteSpace=wrap;html=1;rounded=1;" vertex="1" parent="77e6c97f196da883-3">
          <mxGeometry x="30" y="1310" width="120" height="60" as="geometry" />
        </mxCell>
        <mxCell id="ihScRz3SfvM41WwnzZbL-68" value="结束" style="whiteSpace=wrap;html=1;rounded=1;" vertex="1" parent="77e6c97f196da883-3">
          <mxGeometry x="30" y="1410" width="120" height="60" as="geometry" />
        </mxCell>
        <mxCell id="ihScRz3SfvM41WwnzZbL-10" value="" style="edgeStyle=orthogonalEdgeStyle;rounded=0;orthogonalLoop=1;jettySize=auto;html=1;" edge="1" parent="77e6c97f196da883-1" source="ihScRz3SfvM41WwnzZbL-5" target="ihScRz3SfvM41WwnzZbL-9">
          <mxGeometry relative="1" as="geometry" />
        </mxCell>
        <mxCell id="ihScRz3SfvM41WwnzZbL-17" value="" style="edgeStyle=orthogonalEdgeStyle;rounded=0;orthogonalLoop=1;jettySize=auto;html=1;" edge="1" parent="77e6c97f196da883-1" source="ihScRz3SfvM41WwnzZbL-11" target="ihScRz3SfvM41WwnzZbL-16">
          <mxGeometry relative="1" as="geometry" />
        </mxCell>
        <mxCell id="ihScRz3SfvM41WwnzZbL-23" value="" style="edgeStyle=orthogonalEdgeStyle;rounded=0;orthogonalLoop=1;jettySize=auto;html=1;" edge="1" parent="77e6c97f196da883-1" source="ihScRz3SfvM41WwnzZbL-20" target="ihScRz3SfvM41WwnzZbL-22">
          <mxGeometry relative="1" as="geometry" />
        </mxCell>
        <mxCell id="ihScRz3SfvM41WwnzZbL-25" style="edgeStyle=orthogonalEdgeStyle;rounded=0;orthogonalLoop=1;jettySize=auto;html=1;exitX=0.5;exitY=1;exitDx=0;exitDy=0;entryX=0.5;entryY=0;entryDx=0;entryDy=0;" edge="1" parent="77e6c97f196da883-1" source="ihScRz3SfvM41WwnzZbL-20" target="ihScRz3SfvM41WwnzZbL-24">
          <mxGeometry relative="1" as="geometry" />
        </mxCell>
        <mxCell id="ihScRz3SfvM41WwnzZbL-35" value="" style="edgeStyle=orthogonalEdgeStyle;rounded=0;orthogonalLoop=1;jettySize=auto;html=1;" edge="1" parent="77e6c97f196da883-1" source="ihScRz3SfvM41WwnzZbL-30" target="ihScRz3SfvM41WwnzZbL-34">
          <mxGeometry relative="1" as="geometry" />
        </mxCell>
        <mxCell id="77e6c97f196da883-4" value="商家" style="swimlane;html=1;startSize=20;" parent="77e6c97f196da883-1" vertex="1">
          <mxGeometry x="340" y="20" width="170" height="1520" as="geometry" />
        </mxCell>
        <mxCell id="ihScRz3SfvM41WwnzZbL-5" value="商家注册" style="rounded=1;whiteSpace=wrap;html=1;" vertex="1" parent="77e6c97f196da883-4">
          <mxGeometry x="20" y="50" width="120" height="60" as="geometry" />
        </mxCell>
        <mxCell id="ihScRz3SfvM41WwnzZbL-19" value="" style="edgeStyle=orthogonalEdgeStyle;rounded=0;orthogonalLoop=1;jettySize=auto;html=1;" edge="1" parent="77e6c97f196da883-4" source="ihScRz3SfvM41WwnzZbL-16" target="ihScRz3SfvM41WwnzZbL-18">
          <mxGeometry relative="1" as="geometry" />
        </mxCell>
        <mxCell id="ihScRz3SfvM41WwnzZbL-16" value="Yes" style="ellipse;whiteSpace=wrap;html=1;rounded=1;" vertex="1" parent="77e6c97f196da883-4">
          <mxGeometry x="35" y="165" width="90" height="50" as="geometry" />
        </mxCell>
        <mxCell id="ihScRz3SfvM41WwnzZbL-21" value="" style="edgeStyle=orthogonalEdgeStyle;rounded=0;orthogonalLoop=1;jettySize=auto;html=1;" edge="1" parent="77e6c97f196da883-4" source="ihScRz3SfvM41WwnzZbL-18" target="ihScRz3SfvM41WwnzZbL-20">
          <mxGeometry relative="1" as="geometry" />
        </mxCell>
        <mxCell id="ihScRz3SfvM41WwnzZbL-18" value="登录系统" style="whiteSpace=wrap;html=1;rounded=1;" vertex="1" parent="77e6c97f196da883-4">
          <mxGeometry x="20" y="250" width="120" height="60" as="geometry" />
        </mxCell>
        <mxCell id="ihScRz3SfvM41WwnzZbL-20" value="创建商品，基础设置" style="whiteSpace=wrap;html=1;rounded=1;" vertex="1" parent="77e6c97f196da883-4">
          <mxGeometry x="20" y="370" width="120" height="60" as="geometry" />
        </mxCell>
        <mxCell id="ihScRz3SfvM41WwnzZbL-53" style="edgeStyle=orthogonalEdgeStyle;rounded=0;orthogonalLoop=1;jettySize=auto;html=1;exitX=0.5;exitY=1;exitDx=0;exitDy=0;" edge="1" parent="77e6c97f196da883-4" source="ihScRz3SfvM41WwnzZbL-34" target="ihScRz3SfvM41WwnzZbL-36">
          <mxGeometry relative="1" as="geometry" />
        </mxCell>
        <mxCell id="ihScRz3SfvM41WwnzZbL-55" style="edgeStyle=orthogonalEdgeStyle;rounded=0;orthogonalLoop=1;jettySize=auto;html=1;exitX=1;exitY=0.5;exitDx=0;exitDy=0;entryX=0.5;entryY=0;entryDx=0;entryDy=0;" edge="1" parent="77e6c97f196da883-4" source="ihScRz3SfvM41WwnzZbL-34" target="ihScRz3SfvM41WwnzZbL-42">
          <mxGeometry relative="1" as="geometry">
            <Array as="points">
              <mxPoint x="145" y="730" />
              <mxPoint x="145" y="910" />
              <mxPoint x="85" y="910" />
            </Array>
          </mxGeometry>
        </mxCell>
        <mxCell id="ihScRz3SfvM41WwnzZbL-34" value="Yes" style="ellipse;whiteSpace=wrap;html=1;rounded=1;" vertex="1" parent="77e6c97f196da883-4">
          <mxGeometry x="25" y="700" width="100" height="60" as="geometry" />
        </mxCell>
        <mxCell id="ihScRz3SfvM41WwnzZbL-36" value="显示折扣价" style="whiteSpace=wrap;html=1;rounded=1;" vertex="1" parent="77e6c97f196da883-4">
          <mxGeometry x="15" y="820" width="120" height="60" as="geometry" />
        </mxCell>
        <mxCell id="ihScRz3SfvM41WwnzZbL-42" value="生成订单信息" style="whiteSpace=wrap;html=1;rounded=1;" vertex="1" parent="77e6c97f196da883-4">
          <mxGeometry x="25" y="940" width="120" height="60" as="geometry" />
        </mxCell>
        <mxCell id="ihScRz3SfvM41WwnzZbL-49" value="接单派送" style="whiteSpace=wrap;html=1;rounded=1;" vertex="1" parent="77e6c97f196da883-4">
          <mxGeometry x="25" y="1070" width="120" height="60" as="geometry" />
        </mxCell>
        <mxCell id="ihScRz3SfvM41WwnzZbL-50" value="" style="edgeStyle=orthogonalEdgeStyle;rounded=0;orthogonalLoop=1;jettySize=auto;html=1;" edge="1" parent="77e6c97f196da883-4" source="ihScRz3SfvM41WwnzZbL-42" target="ihScRz3SfvM41WwnzZbL-49">
          <mxGeometry relative="1" as="geometry" />
        </mxCell>
        <mxCell id="ihScRz3SfvM41WwnzZbL-64" value="评价信息" style="whiteSpace=wrap;html=1;rounded=1;" vertex="1" parent="77e6c97f196da883-4">
          <mxGeometry x="25" y="1210" width="120" height="60" as="geometry" />
        </mxCell>
        <mxCell id="ihScRz3SfvM41WwnzZbL-38" style="edgeStyle=orthogonalEdgeStyle;rounded=0;orthogonalLoop=1;jettySize=auto;html=1;" edge="1" parent="77e6c97f196da883-1" source="ihScRz3SfvM41WwnzZbL-36" target="ihScRz3SfvM41WwnzZbL-30">
          <mxGeometry relative="1" as="geometry">
            <Array as="points">
              <mxPoint x="250" y="850" />
              <mxPoint x="250" y="750" />
            </Array>
          </mxGeometry>
        </mxCell>
        <mxCell id="ihScRz3SfvM41WwnzZbL-43" value="" style="edgeStyle=orthogonalEdgeStyle;rounded=0;orthogonalLoop=1;jettySize=auto;html=1;" edge="1" parent="77e6c97f196da883-1" source="ihScRz3SfvM41WwnzZbL-32" target="ihScRz3SfvM41WwnzZbL-42">
          <mxGeometry relative="1" as="geometry">
            <Array as="points">
              <mxPoint x="80" y="940" />
              <mxPoint x="405" y="940" />
            </Array>
          </mxGeometry>
        </mxCell>
        <mxCell id="ihScRz3SfvM41WwnzZbL-52" style="edgeStyle=orthogonalEdgeStyle;rounded=0;orthogonalLoop=1;jettySize=auto;html=1;entryX=0.575;entryY=-0.033;entryDx=0;entryDy=0;entryPerimeter=0;" edge="1" parent="77e6c97f196da883-1" source="ihScRz3SfvM41WwnzZbL-42" target="ihScRz3SfvM41WwnzZbL-47">
          <mxGeometry relative="1" as="geometry" />
        </mxCell>
        <mxCell id="ihScRz3SfvM41WwnzZbL-59" value="" style="edgeStyle=orthogonalEdgeStyle;rounded=0;orthogonalLoop=1;jettySize=auto;html=1;" edge="1" parent="77e6c97f196da883-1" source="ihScRz3SfvM41WwnzZbL-49" target="ihScRz3SfvM41WwnzZbL-58">
          <mxGeometry relative="1" as="geometry" />
        </mxCell>
        <mxCell id="ihScRz3SfvM41WwnzZbL-63" value="" style="edgeStyle=orthogonalEdgeStyle;rounded=0;orthogonalLoop=1;jettySize=auto;html=1;" edge="1" parent="77e6c97f196da883-1" source="ihScRz3SfvM41WwnzZbL-60" target="ihScRz3SfvM41WwnzZbL-62">
          <mxGeometry relative="1" as="geometry" />
        </mxCell>
        <mxCell id="ihScRz3SfvM41WwnzZbL-65" value="" style="edgeStyle=orthogonalEdgeStyle;rounded=0;orthogonalLoop=1;jettySize=auto;html=1;" edge="1" parent="77e6c97f196da883-1" source="ihScRz3SfvM41WwnzZbL-62" target="ihScRz3SfvM41WwnzZbL-64">
          <mxGeometry relative="1" as="geometry" />
        </mxCell>
      </root>
    </mxGraphModel>
  </diagram>
</mxfile>
